<!-- Generated by IcoMoon.io -->
<svg version="1.1" xmlns="http://www.w3.org/2000/svg" width="24" height="28" viewBox="0 0 24 28">
<title>arrow-circle-left</title>
<path d="M20 15v-2c0-0.547-0.453-1-1-1h-7.844l2.953-2.953c0.187-0.187 0.297-0.438 0.297-0.703s-0.109-0.516-0.297-0.703l-1.422-1.422c-0.187-0.187-0.438-0.281-0.703-0.281s-0.516 0.094-0.703 0.281l-7.078 7.078c-0.187 0.187-0.281 0.438-0.281 0.703s0.094 0.516 0.281 0.703l7.078 7.078c0.187 0.187 0.438 0.281 0.703 0.281s0.516-0.094 0.703-0.281l1.422-1.422c0.187-0.187 0.281-0.438 0.281-0.703s-0.094-0.516-0.281-0.703l-2.953-2.953h7.844c0.547 0 1-0.453 1-1zM24 14c0 6.625-5.375 12-12 12s-12-5.375-12-12 5.375-12 12-12 12 5.375 12 12z"></path>
</svg>
