<!-- Generated by IcoMoon.io -->
<svg version="1.1" xmlns="http://www.w3.org/2000/svg" width="24" height="28" viewBox="0 0 24 28">
<title>arrow-circle-right</title>
<path d="M20.078 14c0-0.266-0.094-0.516-0.281-0.703l-7.078-7.078c-0.187-0.187-0.438-0.281-0.703-0.281s-0.516 0.094-0.703 0.281l-1.422 1.422c-0.187 0.187-0.281 0.438-0.281 0.703s0.094 0.516 0.281 0.703l2.953 2.953h-7.844c-0.547 0-1 0.453-1 1v2c0 0.547 0.453 1 1 1h7.844l-2.953 2.953c-0.187 0.187-0.297 0.438-0.297 0.703s0.109 0.516 0.297 0.703l1.422 1.422c0.187 0.187 0.438 0.281 0.703 0.281s0.516-0.094 0.703-0.281l7.078-7.078c0.187-0.187 0.281-0.438 0.281-0.703zM24 14c0 6.625-5.375 12-12 12s-12-5.375-12-12 5.375-12 12-12 12 5.375 12 12z"></path>
</svg>
