<svg xmlns="http://www.w3.org/2000/svg" viewBox="0 0 18 15"><path d="M14.7 13.8c-.7 0-1.2-.5-1.4-1.1v-.5c.1-.6.7-1.1 1.4-1.1.8 0 1.4.6 1.4 1.4 0 .6-.6 1.3-1.4 1.3zM2.6 8.9c-.8 0-1.4-.6-1.4-1.4 0-.8.6-1.4 1.4-1.4S4 6.8 4 7.5s-.6 1.4-1.4 1.4zm10.8-6.6c.1-.6.7-1.1 1.4-1.1.8 0 1.4.6 1.4 1.4 0 .8-.6 1.4-1.4 1.4-.7 0-1.2-.5-1.4-1.1v-.6zm1.3 7.5c-1.2 0-2.2.8-2.5 1.9h-1.6L8.2 7.5l2.4-4.2h1.6c.3 1.1 1.4 1.9 2.5 1.9 1.5 0 2.6-1.2 2.6-2.6S16.2 0 14.7 0c-1.2 0-2.2.8-2.5 1.9H9.8L6.9 6.8H7 5.2c-.4-1.1-1.4-1.9-2.6-1.9C1.2 4.9 0 6.1 0 7.5s1.2 2.6 2.6 2.6c1.2 0 2.2-.8 2.5-1.9h1.7l2.9 4.9h2.4c.3 1.1 1.4 1.9 2.5 1.9 1.5 0 2.6-1.2 2.6-2.6s-1-2.6-2.5-2.6z"></path></svg>