<svg xmlns="http://www.w3.org/2000/svg" viewBox="0 0 32 32"><path d="M22.95 8.93c-.05-.37 0-.8 0-.8a2.08 2.08 0 012.03-1.68H25a2.08 2.08 0 010 4.15h-.02c-.99 0-1.84-.7-2.03-1.67zM32 2.05v27.9c0 1.13-.86 2.05-1.92 2.05H1.93C.86 32 0 31.08 0 29.95V2.05C0 .92.86 0 1.93 0h28.15C31.14 0 32 .92 32 2.05zM28.93 23.4a3.95 3.95 0 00-7.74-1.1h-2.35L15.2 16l3.65-6.29h2.33a3.95 3.95 0 100-2.23v.02h-3.55l-.04-.02-4.33 7.46h-2.56a3.95 3.95 0 100 2.21h2.62l4.27 7.36.02-.01h3.59a3.95 3.95 0 007.74-1.1zm-3.91-2.16c-1 0-1.84.7-2.04 1.67v.11l-.03.06c-.06.4 0 .8 0 .8a2.06 2.06 0 004 .16 2.06 2.06 0 00-1.93-2.8zM6.93 13.89c-1.14 0-2.07.93-2.07 2.07V16a2.07 2.07 0 003.79 1.13 2.08 2.08 0 00-1.71-3.24z"/></svg>